Coordinates
version=1
nRows=13
nColumns=36
inDegrees=yes

Units are S.I. units (second, meters, Newtons, ...)
If the header above contains a line with 'inDegrees', this indicates whether rotational values are in degrees (yes) or radians (no).

endheader
time	pelvis_tilt	pelvis_list	pelvis_rotation	pelvis_tx	pelvis_ty	pelvis_tz	hip_flexion_r	hip_adduction_r	hip_rotation_r	knee_angle_r	knee_angle_r_beta	ankle_angle_r	subtalar_angle_r	mtp_angle_r	hip_flexion_l	hip_adduction_l	hip_rotation_l	knee_angle_l	knee_angle_l_beta	ankle_angle_l	subtalar_angle_l	mtp_angle_l	lumbar_extension	lumbar_bending	lumbar_rotation	arm_flex_r	arm_add_r	arm_rot_r	elbow_flex_r	pro_sup_r	arm_flex_l	arm_add_l	arm_rot_l	elbow_flex_l	pro_sup_l
      3.50000000	     -4.01280780	      4.19583952	      0.20758359	      0.43332912	      0.97695322	     -0.08295738	      4.83237715	     -9.21720701	     -7.66438883	     10.72392940	      0.18716788	     10.00374270	     -7.52081243	     -7.49999986	      2.86997184	     -6.15364782	     -6.85477176	      5.33843150	      0.09317321	      8.69384338	      0.61653821	     -7.49999986	      3.06206042	     -0.31946603	     -2.17940434	     37.53199616	     11.22352009	     69.61958435	    130.86950935	     91.58138993	     42.04379664	      7.74935981	     65.64854345	    126.80543400	     67.99599346
      3.51666670	     -3.49217368	      4.18219363	     -0.00855565	      0.42990876	      0.97287496	     -0.08539226	      3.73957025	     -9.20531304	     -7.20033571	      9.71143706	      0.16949655	      9.30174796	     -7.74245778	     -7.49999986	      1.65161548	     -5.89577537	     -6.50394987	      4.27804608	      0.07466599	      8.27223535	      0.15069359	     -7.49999986	      2.54281648	      0.02836898	     -1.68477214	     37.01368237	     10.36372232	     68.80769393	    131.69319049	     90.57111887	     41.07168195	      8.17258226	     65.49082124	    126.64697143	     67.78548745
      3.53333330	     -3.14654540	      4.15102223	     -0.18981007	      0.42936861	      0.97134103	     -0.08564402	      2.97857499	     -9.17006349	     -6.65234797	      8.87413954	      0.15488295	      8.91725206	     -7.82292152	     -7.49999986	      0.88561945	     -5.75108661	     -6.04153328	      3.64006941	      0.06353120	      8.20619475	     -0.24243709	     -7.49999986	      2.19557027	      0.23674884	     -1.19980764	     36.72687657	      9.75282908	     68.85509055	    131.76679125	     89.79050462	     40.25891979	      8.12778011	     65.57325435	    126.41188088	     67.75244026
      3.55000000	     -2.86997924	      4.13156040	     -0.31506029	      0.42939609	      0.96952256	     -0.08550158	      2.33266923	     -9.11407225	     -5.97306512	      8.08764205	      0.14115598	      8.71765219	     -8.18193405	     -7.49999986	      0.34670286	     -5.66543295	     -5.61382778	      3.25829725	      0.05686801	      8.28317279	     -0.65440809	     -7.49999986	      1.92696415	      0.39507863	     -0.76880126	     36.47974138	      9.48825127	     69.25858571	    131.54552085	     89.03484457	     39.68550866	      8.08406278	     65.76894244	    126.44331462	     67.71831414
      3.56666670	     -2.64232184	      4.06448487	     -0.43979081	      0.42872945	      0.96641900	     -0.08528083	      1.89990709	     -9.00498328	     -5.14787878	      7.51584718	      0.13117628	      8.48808808	     -8.79996888	     -7.49999986	     -0.03945509	     -5.68851837	     -5.21178203	      3.06195522	      0.05344120	      8.56876707	     -1.04970823	     -7.49999986	      1.68563489	      0.55701466	     -0.49066675	     36.11193106	      9.33373087	     69.20343537	    131.14608742	     93.80291412	     39.27107869	      7.97925079	     65.60704301	    126.24151972	     70.80094376
      3.58333330	     -2.44027300	      4.01857621	     -0.63652647	      0.42904182	      0.96638896	     -0.08517343	      1.53442643	     -8.93837678	     -4.56362304	      7.09460668	      0.12382425	      8.50455618	     -8.97648667	     -7.49999986	     -0.32212516	     -5.74200217	     -4.99223418	      3.02968408	      0.05287796	      8.82552561	     -1.34220979	     -7.49999986	      1.58155180	      0.67013296	     -0.15682856	     35.68603686	      9.33058513	     69.05998178	    130.71857234	     92.68854954	     38.85759335	      7.85493870	     65.63997099	    126.34472832	     70.32511625
      3.60000000	     -2.32433639	      4.00458846	     -0.90392798	      0.42848864	      0.96708171	     -0.08493280	      1.34905380	     -8.88975847	     -3.97462281	      6.82714746	      0.11915620	      8.54455856	     -9.19845303	     -7.49999987	     -0.51286651	     -5.76678065	     -4.92317698	      3.01187621	      0.05256716	      9.04991742	     -1.63367561	     -7.49999987	      1.58253450	      0.68304572	      0.05564228	     35.21371424	      9.53732682	     69.13266601	    130.46056107	     90.83615246	     38.48257830	      7.60578543	     65.62805772	    126.63637099	     69.51652488
      3.61666670	     -2.28778084	      3.98547991	     -1.04869921	      0.42895675	      0.96678829	     -0.08473334	      1.20892032	     -8.83452686	     -3.45428757	      6.58850243	      0.11499106	      8.42306179	     -9.56083968	     -7.49999987	     -0.58153352	     -5.78970424	     -4.82099419	      3.05630728	      0.05334262	      9.20456329	     -1.85577405	     -7.49999987	      1.71827698	      0.73995432	      0.19677651	     34.78129511	      9.81099343	     69.19437562	    130.01292930	     93.81084090	     38.15364917	      7.46681933	     65.55240838	    127.15037245	     70.97250447
      3.63333330	     -2.37136315	      4.00099197	     -1.24485059	      0.42843966	      0.96854262	     -0.08421416	      1.27029570	     -8.82600327	     -3.18186378	      6.42959977	      0.11221769	      8.45368469	     -9.40881410	     -7.49999987	     -0.52166059	     -5.77933558	     -4.76513021	      3.08502790	      0.05384389	      9.19275080	     -2.08079275	     -7.49999987	      1.96679230	      0.71306837	      0.54927219	     34.44295571	     10.01396647	     69.40313602	    129.96830690	     91.41879978	     38.00419103	      7.38027646	     65.77456550	    127.77753102	     69.80248032
      3.65000000	     -2.37066482	      4.01031902	     -1.45492889	      0.42846123	      0.97340417	     -0.08385850	      1.12002711	     -8.78676730	     -2.80920433	      6.01779434	      0.10503032	      8.35945088	     -9.20147038	     -7.49999987	     -0.60698623	     -5.80614190	     -4.76274103	      3.02680433	      0.05282770	      9.06013091	     -2.04407006	     -7.49999987	      2.04522827	      0.71281212	      0.80317964	     34.32929917	     10.16983783	     69.58323676	    129.69384377	     91.57552945	     37.91083523	      7.33537753	     65.93277316	    127.84839164	     69.89125449
      3.66666670	     -2.25249544	      4.00125567	     -1.64740946	      0.42736128	      0.97874737	     -0.08339586	      0.84757174	     -8.73400006	     -2.54763087	      5.54470008	      0.09677327	      7.96353049	     -9.00066889	     -7.49999987	     -0.82507969	     -5.80181300	     -4.82677339	      2.85720755	      0.04986768	      8.67893256	     -1.93292825	     -7.49999987	      1.80312000	      0.74135950	      0.94375465	     34.31948309	     10.21257758	     69.74166521	    129.49318468	     91.93334221	     37.88389029	      7.18243620	     66.17495225	    127.80870632	     70.08018486
      3.68333330	     -2.20043481	      3.98513358	     -1.81503007	      0.42770046	      0.97712595	     -0.08377984	      0.70122678	     -8.68619643	     -2.31312595	      5.21993814	      0.09110511	      7.73225749	     -8.71537136	     -7.49999987	     -0.94332477	     -5.79605576	     -4.79483210	      2.75849536	      0.04814483	      8.42567033	     -2.06183774	     -7.49999987	      1.73518912	      0.67852217	      1.02616625	     34.39010899	     10.25065455	     69.69940845	    129.66626087	     90.86814955	     37.93366593	      7.07606704	     66.01595804	    127.98995536	     69.62891288
      3.70000000	     -2.06842918	      3.94772567	     -1.99344535	      0.42761596	      0.97046798	     -0.08398911	      0.56089032	     -8.63545023	     -1.99046798	      5.08338627	      0.08872183	      7.58733290	     -8.88616587	     -7.49999987	     -1.13734506	     -5.81744860	     -4.97831978	      2.72674125	      0.04759061	      8.48666391	     -1.98913611	     -7.49999987	      1.54641128	      0.63157386	      1.23132882	     34.85652746	     10.21997719	     69.20281353	    129.79837393	     95.06214295	     38.38292582	      7.14816110	     65.74038105	    127.91285384	     71.86979590
